<svg width="209" height="558" viewBox="0 0 209 558" fill="none" xmlns="http://www.w3.org/2000/svg">
<path d="M153.732 86.2501L156.926 87.1728C173.094 91.7875 176.887 106.815 174.556 125.399C174.634 128.399 175.114 131.303 175.994 134.109C187.887 163.294 181.675 165.05 188.7 189.7C188.798 190.001 188.797 190.201 188.795 190.501C191.363 194.919 190.087 233.911 187.816 258.096C187.912 258.597 187.909 258.997 187.806 259.496C186.844 268.289 186.651 267.288 187.729 270.296C188.808 273.303 192.997 288.933 193.091 289.834C193.281 291.235 193.271 292.635 193.062 293.934C192.231 298.328 191.393 303.722 189.589 304.21C188.57 306.903 186.957 308.691 185.954 309.184C183.532 312.267 182.818 314.162 181.821 313.755C180.824 313.348 180.433 312.145 180.84 311.148C180.84 311.148 180.84 311.148 180.84 311.048C181.25 309.751 180.743 310.747 179.932 312.241C178.919 314.034 178.006 315.928 177.303 316.323C174.415 314.602 176.341 310.916 178.061 308.128C179.072 306.535 177.558 308.525 175.737 311.512C174.118 314.2 172.501 316.589 172.103 316.286C168.322 313.659 173.177 305.793 173.984 304.899C173.902 302.298 173.92 299.799 174.038 297.199C173.25 295.494 172.671 292.59 172.301 288.287C171.889 289.984 171.278 291.58 170.667 293.175C169.76 294.169 172.197 302.986 165.397 302.938C165.422 299.538 165.455 294.838 165.478 291.639C165.496 289.039 166.343 282.344 166.362 279.744C166.38 277.145 172.228 270.386 172.53 270.088C172.759 265.989 172.589 261.788 172.218 257.685C172.219 257.585 172.22 257.385 172.321 257.286C171.091 247.477 168.062 237.455 166.005 231.241C163.949 225.026 160.235 212.899 160.996 204.305C160.898 204.004 160.801 203.603 160.903 203.304C160.822 200.603 161.142 197.805 161.961 195.211C154.154 181.956 149.861 166.925 149.67 151.523C147.193 162.306 139.894 176.254 139.836 184.554C139.765 194.554 142.708 202.575 142.661 209.175C142.633 213.175 141.493 218.767 139.241 226.151C143.184 234.179 159.41 272.895 161.881 305.313C164.259 336.631 164.71 357.635 161.358 379.012C168.689 388.864 171.572 419.485 166.338 452.449C164.351 464.735 166.762 491.453 168.965 505.069C171.169 518.685 156.069 518.678 150.797 514.64C147.814 512.319 143.063 505.385 145.196 500.7C145.067 490.599 141.886 459.776 134.042 437.619C129.926 425.79 130.262 406.592 130.837 396.096C130.741 395.495 130.545 394.894 130.449 394.293C129.29 388.585 130.003 386.79 130.126 383.49C126.888 374.667 118.396 359.407 115.291 345.984C112.672 334.565 110.264 321.648 107.866 307.231L105.366 307.113C104.44 310.907 103.712 314.801 103.184 318.798C102.419 327.893 103.511 343.101 89.5191 384.303C89.478 390.103 91.273 390.815 90.5234 397.81C90.3086 399.909 89.9944 401.906 89.4795 404.003C92.3909 416.524 95.242 437.545 86.0076 456.48C79.9178 469.137 76.3918 486.912 78.423 496.627C80.991 501.145 79.7181 511.436 76.9997 514.017C72.068 518.482 53.189 515.449 55.5888 501.365C57.9887 487.282 58.1396 465.982 54.258 449.254C50.763 434.429 52.0883 416.738 55.3229 397.761C55.3278 397.061 55.3328 396.361 55.3385 395.561C55.3633 392.061 55.4859 388.862 55.7072 385.863C54.0597 378.451 51.9037 372.236 49.7702 348.72C48.6553 336.712 50.1261 326.722 49.9061 315.42C50.9662 278.727 57.777 234.874 61.1386 226.198L61.3386 226.199C60.8676 222.096 60.5974 217.894 60.5265 213.793C60.5626 208.693 63.7405 197.715 64.8127 187.523C65.6665 179.929 61.324 171.798 58.485 163.177C57.4085 173.97 52.0307 184.932 45.0678 193.783C52.531 227.237 39.5272 241.845 35.7395 268.319C36.236 268.822 36.6324 269.325 37.0289 269.828C41.2891 275.458 41.9366 282.863 39.1729 291.844C40.5516 294.853 41.5396 296.561 42.1353 297.165C43.8253 298.577 45.2317 297.687 45.6998 302.19C44.2034 301.68 42.5077 301.067 41.0119 300.457C44.2956 302.78 45.2792 305.087 44.1644 307.179L39.7822 304.648C40.8751 305.656 41.5659 306.961 41.756 308.362C41.646 309.762 41.2368 311.059 40.5283 312.254L36.4703 306.325L31.1412 296.287L34.1781 305.209C36.2582 308.023 37.3405 310.531 37.5263 312.532C37.7121 314.534 37.0036 315.729 35.2023 315.916C31.6364 311.091 29.4577 308.075 28.6648 307.07C26.5911 303.355 24.818 299.542 23.3464 295.532C22.6627 293.227 22.5024 287.625 22.8669 278.528C22.7796 276.727 22.7931 274.827 23.0058 273.029C24.7177 257.24 16.3866 233.381 18.9615 208.698C19.3955 203.901 20.5295 199.109 22.2613 194.621C22.6904 190.524 25.1286 185.141 24.9534 181.64C23.4106 145.328 31.9622 152.189 31.5848 134.886C31.2074 117.583 30.1889 106.075 36.8483 97.7223C41.9949 91.1586 53.6215 87.4409 60.7249 86.9912C62.1326 85.9011 63.739 85.0125 65.3446 84.2238C70.0601 82.0572 74.9741 80.092 79.8868 78.3267C85.8419 70.5687 84.7554 68.661 84.8524 54.9613C84.9509 41.0617 119.906 47.5095 119.864 53.4094C119.825 58.9092 117.037 71.3898 123.996 77.2392" fill="url(#paint0_linear_878_3565)"/>
<path d="M178.85 295.531L179.889 304.139" stroke="#F29353" stroke-width="1.14" stroke-linecap="round"/>
<path d="M183.85 295.57L184.177 305.872L182.76 308.162" stroke="#F29353" stroke-width="1.14" stroke-linecap="round"/>
<path d="M189.672 292.609L189.401 302.607L187.47 306.993" stroke="#F29353" stroke-width="1.14" stroke-linecap="round"/>
<path d="M173.382 290.994L172.315 286.387L171.188 290.179" stroke="#F29353" stroke-width="1.14" stroke-linecap="round"/>
<path d="M173.553 266.793L172.425 270.685" stroke="#F29353" stroke-width="1.14" stroke-linecap="round"/>
<path d="M151.464 138.235C151.042 141.332 152.113 145.44 154.878 150.359" stroke="#EE8B48" stroke-width="1.14" stroke-linecap="round"/>
<path d="M167.531 185.25C165.511 188.036 163.989 191.125 163.066 194.419" stroke="#F29353" stroke-width="1.14" stroke-linecap="round"/>
<path d="M62.8756 390.614C61.4338 396.504 62.1005 401.209 64.7749 404.828C67.4494 408.447 68.8047 414.757 68.6409 423.756" stroke="#F08944" stroke-width="1.14" stroke-linecap="round"/>
<path d="M83.3781 390.158C84.9292 397.069 84.4937 402.066 81.9733 404.948" stroke="#F08944" stroke-width="1.14" stroke-linecap="round"/>
<path d="M63.2906 148.309C58.2127 145.173 55.9702 137.057 54.3709 136.946C52.7717 136.834 50.537 141.719 47.3144 144.896" stroke="#EE8B48" stroke-width="1.14" stroke-linecap="round"/>
<path d="M55.9339 142.057C55.9956 147.458 54.8581 152.75 52.7235 157.635" stroke="#EE8B48" stroke-width="1.14" stroke-linecap="round"/>
<path d="M57.0449 140.664C60.886 148.991 67.7688 151.44 79.6685 151.525C91.5682 151.609 100.577 150.373 101.344 140.978" stroke="#EE8B48" stroke-width="1.14" stroke-linecap="round"/>
<path d="M142.291 148.868C147.413 145.804 149.77 137.72 151.371 137.632C152.972 137.543 155.137 142.458 158.314 145.681" stroke="#EE8B48" stroke-width="1.14" stroke-linecap="round"/>
<path d="M148.645 141.314C144.686 149.586 137.769 151.937 125.869 151.853C113.97 151.768 104.979 150.405 104.346 141" stroke="#EE8B48" stroke-width="1.14" stroke-linecap="round"/>
<path d="M121.311 75.2188C121.691 78.0215 122.372 80.7264 123.352 83.4334" stroke="#F89451" stroke-width="1.14" stroke-linecap="round"/>
<path d="M82.6039 76.0429C82.4876 78.3422 82.0713 80.6393 81.4557 82.835" stroke="#F89451" stroke-width="1.14" stroke-linecap="round"/>
<path d="M134.19 388.817C133.947 394.815 135.215 399.324 138.095 402.245C140.974 405.165 143.033 410.98 144.471 419.79" stroke="#F08944" stroke-width="1.14" stroke-linecap="round"/>
<path d="M154.581 389.961C155.431 397.067 154.497 401.861 151.678 404.541" stroke="#F08944" stroke-width="1.14" stroke-linecap="round"/>
<path fill-rule="evenodd" clip-rule="evenodd" d="M43.5882 543.979C44.7507 549.287 49.225 552.919 56.0142 554.467C62.8035 556.015 75.0067 555.602 78.8243 553.129C82.6419 550.656 90.1048 541.809 79.705 527.634C82.6665 518.955 87.3125 512.488 79.4849 502.232C75.9319 509.707 64.9584 505.929 56.8812 502.672C54.9863 501.959 50.8723 518.03 49.5178 525.721C44.8449 535.988 41.945 535.967 43.5882 543.979Z" fill="#C6C6C6"/>
<path fill-rule="evenodd" clip-rule="evenodd" d="M61.2953 500.701C64.4087 498.823 68.4072 499.052 71.2908 501.372C72.0865 501.978 73.3695 504.387 75.3737 503.801C78.48 502.923 78.2027 499.721 79.3104 498.629C80.4182 497.537 83.4593 505.859 80.6041 513.639C77.7489 521.419 83.5645 533.36 83.5645 533.36C83.5645 533.36 86.3602 548.08 75.9569 548.506C72.9556 548.685 73.0698 546.686 64.4664 547.125C59.2645 547.388 60.3425 550.496 52.5625 547.641C44.7825 544.786 42.8286 538.272 44.352 534.982C45.9767 531.494 49.0192 525.515 50.7623 519.427C51.0332 509.429 52.8813 502.642 56.1068 499.065C56.1926 501.065 57.584 502.275 58.284 502.28C60.4833 502.396 60.4911 501.296 61.2953 500.701Z" fill="black"/>
<path fill-rule="evenodd" clip-rule="evenodd" d="M57.4246 510.676L69.8924 515.264L59.8494 521.293L70.5165 525.969L58.5112 526.684L70.1541 520.666L59.5877 515.891L71.4313 509.775L57.4246 510.676Z" stroke="white" stroke-width="1.07" stroke-linecap="round" stroke-linejoin="round"/>
<path fill-rule="evenodd" clip-rule="evenodd" d="M181.384 544.956C180.346 550.349 175.92 554.018 169.208 555.67C162.496 557.323 150.197 557.236 146.314 554.808C142.43 552.48 134.792 543.726 144.994 529.398C141.855 520.776 137.099 514.442 144.674 503.995C148.421 511.422 159.25 507.399 167.274 503.955C169.18 503.169 173.567 519.2 175.113 526.811C180.04 537.047 182.941 536.967 181.384 544.956Z" fill="#C6C6C6"/>
<path fill-rule="evenodd" clip-rule="evenodd" d="M162.887 502.024C159.699 500.201 155.697 500.573 152.88 502.953C152.075 503.647 150.859 505.938 148.862 505.424C145.768 504.602 146.892 501.21 145.799 500.202C144.706 499.195 140.846 507.668 143.791 515.389C146.837 523.11 141.251 535.171 141.251 535.171C141.251 535.171 138.746 549.954 149.245 550.128C152.245 550.149 152.159 548.249 160.657 548.509C165.856 548.646 164.834 551.839 172.655 548.794C180.477 545.749 182.124 539.161 180.547 535.95C178.872 532.438 175.713 526.515 173.756 520.501C173.227 510.497 171.275 503.683 167.999 500.26C167.885 502.259 166.576 503.55 165.976 503.545C163.775 503.73 163.682 502.629 162.887 502.024Z" fill="black"/>
<path fill-rule="evenodd" clip-rule="evenodd" d="M166.918 511.951L154.584 516.763L164.642 522.635L154.107 527.56L166.204 528.046L154.345 522.162L164.88 517.236L152.922 511.352L166.918 511.951Z" stroke="white" stroke-width="1.07" stroke-linecap="round" stroke-linejoin="round"/>
<g opacity="0.42" filter="url(#filter0_f_878_3565)">
<path fill-rule="evenodd" clip-rule="evenodd" d="M86.429 58.6729C86.6864 64.6748 87.8773 80.0837 94.1523 83.6282C100.427 87.1728 107.828 87.1252 111.652 83.7522C115.476 80.3792 119.258 68.8057 119.439 57.3067C120.495 49.514 83.8829 51.0546 86.429 58.6729Z" fill="#915D2E" fill-opacity="0.7"/>
</g>
<path fill-rule="evenodd" clip-rule="evenodd" d="M82.914 60.6477C83.2665 67.3503 91.2032 76.3068 94.484 79.0301C97.7648 81.7534 106.357 82.8143 110.184 79.1413C114.01 75.4684 117.44 71.1926 118.258 68.6983C119.075 66.204 121.614 60.7219 122.026 59.1247C124.591 64.043 134.448 41.9123 125.837 43.4514C125.879 37.5515 126.581 23.1561 118.626 16.6996C110.672 10.2431 100.28 9.06942 89.344 14.0921C78.4081 19.1147 76.3316 29.9003 78.7295 44.3176C80.726 44.8318 71.2411 42.6645 74.8715 52.4905C77.3353 57.6081 77.3028 62.208 82.914 60.6477Z" fill="#FFD4AB"/>
<path d="M101.188 78.5781L103.487 78.5944" stroke="#EA833E" stroke-width="1.14" stroke-linecap="round"/>
<path d="M127.013 46.9594C123.495 49.4346 121.682 51.3218 121.672 52.7217" stroke="#EA833E" stroke-width="1.14" stroke-linecap="round"/>
<path d="M124.387 50.3394L124.37 52.7394L121.644 56.5202" stroke="#EA833E" stroke-width="1.14" stroke-linecap="round"/>
<path d="M76.2012 48.1992C78.1969 48.8134 79.7855 50.4247 80.3713 52.4289" stroke="#EA833E" stroke-width="1.14" stroke-linecap="round"/>
<path d="M78.1895 50.0156L78.6618 53.9191L81.1454 56.2367" stroke="#EA833E" stroke-width="1.14" stroke-linecap="round"/>
<path opacity="0.75" fill-rule="evenodd" clip-rule="evenodd" d="M139.084 226.416C125.268 235.486 67.3253 233.949 60.8024 226.321C56.614 209.666 63.3378 199.643 63.9887 185.907C64.2958 179.426 59.9984 173.601 58.6726 163.933C57.4734 158.694 56.8867 154.256 56.9125 150.62C63.4319 143.722 66.7431 133.003 66.8461 118.464C66.9951 97.4437 63.0339 92.2879 60.6803 86.7576C60.1301 85.7511 62.9772 84.0937 66.1252 82.8508C69.7556 81.4174 73.6148 79.349 74.129 80.1666C74.1156 82.0563 81.5011 109.33 101.794 109.474C122.087 109.618 128.446 105.009 134.067 80.4018C133.84 79.6928 136.525 80.3061 141.017 81.5404C145.51 82.7748 148.939 83.9451 148.039 84.504C146.639 85.0748 146.081 89.174 142.561 115.163C139.042 141.152 146.275 141.356 150.308 146.135C150.396 150.044 149.798 154.576 148.512 159.732C141.938 174.602 139.631 186.526 141.592 195.506C144.534 208.974 144.906 220.902 139.084 226.416Z" fill="#FFFAF9"/>
<path opacity="0.85" fill-rule="evenodd" clip-rule="evenodd" d="M104.14 321.813L105.118 312.318L107.639 312.298L108.558 321.845C128.606 322.059 142.725 320.996 150.914 318.654C157.386 316.803 161.492 311.812 163.231 303.68C158.949 279.464 154.936 261.995 151.192 251.273C147.535 240.801 141.741 226.168 139.241 226.15C102.046 236.269 67.5454 229.845 61.1389 226.197C59.0982 226.042 58.1806 233.037 56.7899 239.116C54.632 248.55 49.9033 289.633 49.1375 306.167C49.0522 318.209 67.3862 323.425 104.14 321.813Z" fill="black"/>
<g filter="url(#filter1_d_878_3565)">
<path d="M171.146 97C191.321 99.9407 204 104.197 204 108.932C204 117.806 159.452 125 104.5 125C49.5477 125 5 117.806 5 108.932C5 104.383 16.7011 100.276 35.5071 97.3533" stroke="#E95D5C" stroke-width="2" stroke-linecap="round"/>
</g>
<g filter="url(#filter2_d_878_3565)">
<path d="M141.849 178C153.609 180.941 161 185.197 161 189.932C161 198.806 135.033 206 103 206C70.9675 206 45 198.806 45 189.932C45 185.383 51.8207 181.276 62.783 178.353" stroke="#E95D5C" stroke-width="2" stroke-linecap="round"/>
</g>
<g filter="url(#filter3_d_878_3565)">
<path d="M155.401 263C170.506 265.941 180 270.197 180 274.932C180 283.806 146.645 291 105.5 291C64.3548 291 31 283.806 31 274.932C31 270.383 39.7611 266.276 53.842 263.353" stroke="#E95D5C" stroke-width="2" stroke-linecap="round"/>
</g>
<path d="M124 43.5C124.301 40.7785 125 38.9105 123.5 33C121.645 28.031 117.556 24.5852 117.892 18.5858C114.706 16.0908 107.832 20.8399 100.952 21.8063C94.0728 22.7727 80.4992 19.0895 81.4992 30.0895C82.9992 38.2952 80.8312 38.8484 81.4993 45.5L78.9995 44.5C76.9996 42 73.075 29.5078 75.553 16.0688C78.0309 2.6297 106.83 -10.5854 120.201 12.9035C133.406 9.00761 126.81 40.4864 126.5 43.5H124Z" fill="black"/>
<defs>
<filter id="filter0_f_878_3565" x="82.3027" y="48.1602" width="41.1582" height="42.125" filterUnits="userSpaceOnUse" color-interpolation-filters="sRGB">
<feFlood flood-opacity="0" result="BackgroundImageFix"/>
<feBlend mode="normal" in="SourceGraphic" in2="BackgroundImageFix" result="shape"/>
<feGaussianBlur stdDeviation="2" result="effect1_foregroundBlur_878_3565"/>
</filter>
<filter id="filter1_d_878_3565" x="0" y="96" width="209" height="38" filterUnits="userSpaceOnUse" color-interpolation-filters="sRGB">
<feFlood flood-opacity="0" result="BackgroundImageFix"/>
<feColorMatrix in="SourceAlpha" type="matrix" values="0 0 0 0 0 0 0 0 0 0 0 0 0 0 0 0 0 0 127 0" result="hardAlpha"/>
<feOffset dy="4"/>
<feGaussianBlur stdDeviation="2"/>
<feComposite in2="hardAlpha" operator="out"/>
<feColorMatrix type="matrix" values="0 0 0 0 0.913725 0 0 0 0 0.364706 0 0 0 0 0.360784 0 0 0 0.37 0"/>
<feBlend mode="normal" in2="BackgroundImageFix" result="effect1_dropShadow_878_3565"/>
<feBlend mode="normal" in="SourceGraphic" in2="effect1_dropShadow_878_3565" result="shape"/>
</filter>
<filter id="filter2_d_878_3565" x="40" y="177" width="126" height="38" filterUnits="userSpaceOnUse" color-interpolation-filters="sRGB">
<feFlood flood-opacity="0" result="BackgroundImageFix"/>
<feColorMatrix in="SourceAlpha" type="matrix" values="0 0 0 0 0 0 0 0 0 0 0 0 0 0 0 0 0 0 127 0" result="hardAlpha"/>
<feOffset dy="4"/>
<feGaussianBlur stdDeviation="2"/>
<feComposite in2="hardAlpha" operator="out"/>
<feColorMatrix type="matrix" values="0 0 0 0 0.913725 0 0 0 0 0.364706 0 0 0 0 0.360784 0 0 0 0.37 0"/>
<feBlend mode="normal" in2="BackgroundImageFix" result="effect1_dropShadow_878_3565"/>
<feBlend mode="normal" in="SourceGraphic" in2="effect1_dropShadow_878_3565" result="shape"/>
</filter>
<filter id="filter3_d_878_3565" x="26" y="262" width="159" height="38" filterUnits="userSpaceOnUse" color-interpolation-filters="sRGB">
<feFlood flood-opacity="0" result="BackgroundImageFix"/>
<feColorMatrix in="SourceAlpha" type="matrix" values="0 0 0 0 0 0 0 0 0 0 0 0 0 0 0 0 0 0 127 0" result="hardAlpha"/>
<feOffset dy="4"/>
<feGaussianBlur stdDeviation="2"/>
<feComposite in2="hardAlpha" operator="out"/>
<feColorMatrix type="matrix" values="0 0 0 0 0.913725 0 0 0 0 0.364706 0 0 0 0 0.360784 0 0 0 0.37 0"/>
<feBlend mode="normal" in2="BackgroundImageFix" result="effect1_dropShadow_878_3565"/>
<feBlend mode="normal" in="SourceGraphic" in2="effect1_dropShadow_878_3565" result="shape"/>
</filter>
<linearGradient id="paint0_linear_878_3565" x1="106.292" y1="-24.2542" x2="127.801" y2="642.351" gradientUnits="userSpaceOnUse">
<stop stop-color="#FFD6A7"/>
<stop offset="0.49" stop-color="#FFCFB0"/>
<stop offset="1" stop-color="#FFB783"/>
</linearGradient>
</defs>
</svg>
